<svg width="160" height="120" viewBox="0 0 160 120" fill="none" xmlns="http://www.w3.org/2000/svg">
<path d="M78.9649 0L0 120C63.4345 52.2696 98.4643 52.684 160 120L78.9649 0Z" fill="#855AFF"/>
<path d="M52.4772 99.192C51.3252 99.192 50.7492 98.648 50.7492 97.56V91.8C50.7492 90.264 51.2372 89.048 52.2132 88.152C53.2052 87.256 54.5092 86.808 56.1252 86.808C57.7412 86.808 59.0372 87.256 60.0132 88.152C61.0052 89.048 61.5012 90.264 61.5012 91.8V97.56C61.5012 98.648 60.9252 99.192 59.7732 99.192C58.6212 99.192 58.0452 98.648 58.0452 97.56V91.992C58.0452 91.24 57.8772 90.672 57.5412 90.288C57.2052 89.888 56.7332 89.688 56.1252 89.688C55.5172 89.688 55.0452 89.888 54.7092 90.288C54.3732 90.672 54.2052 91.24 54.2052 91.992V97.56C54.2052 98.648 53.6292 99.192 52.4772 99.192ZM69.3567 99.192C67.6447 99.192 66.2927 98.704 65.3007 97.728C64.3087 96.752 63.8127 95.176 63.8127 93C63.8127 90.808 64.3087 89.232 65.3007 88.272C66.2927 87.296 67.6447 86.808 69.3567 86.808C71.0687 86.808 72.4207 87.296 73.4127 88.272C74.4047 89.232 74.9007 90.808 74.9007 93C74.9007 95.176 74.4047 96.752 73.4127 97.728C72.4207 98.704 71.0687 99.192 69.3567 99.192ZM69.3567 96.312C69.8047 96.312 70.1807 96.224 70.4847 96.048C70.7887 95.856 71.0207 95.52 71.1807 95.04C71.3567 94.56 71.4447 93.88 71.4447 93C71.4447 92.12 71.3567 91.44 71.1807 90.96C71.0207 90.48 70.7887 90.152 70.4847 89.976C70.1807 89.784 69.8047 89.688 69.3567 89.688C68.9247 89.688 68.5487 89.784 68.2287 89.976C67.9247 90.152 67.6847 90.48 67.5087 90.96C67.3487 91.44 67.2687 92.12 67.2687 93C67.2687 93.88 67.3487 94.56 67.5087 95.04C67.6847 95.52 67.9247 95.856 68.2287 96.048C68.5487 96.224 68.9247 96.312 69.3567 96.312ZM87.6724 100.464C87.6724 101.824 87.0324 102.84 85.7524 103.512C84.4724 104.184 82.6404 104.52 80.2564 104.52C79.0244 104.52 78.1204 104.36 77.5444 104.04C76.9844 103.736 76.7044 103.256 76.7044 102.6C76.7044 102.136 76.8324 101.824 77.0884 101.664C77.3444 101.52 77.6884 101.448 78.1204 101.448C78.4404 101.448 78.7124 101.464 78.9364 101.496C79.1604 101.544 79.4004 101.584 79.6564 101.616C79.9284 101.664 80.2644 101.688 80.6644 101.688C81.9284 101.688 82.8324 101.592 83.3764 101.4C83.9364 101.208 84.2164 100.816 84.2164 100.224C84.2164 99.728 84.0164 99.328 83.6164 99.024C83.2164 98.72 82.7124 98.568 82.1044 98.568C78.4244 98.568 76.5844 96.608 76.5844 92.688C76.5844 90.688 77.0484 89.208 77.9764 88.248C78.9044 87.288 80.2884 86.808 82.1284 86.808C83.3444 86.808 84.3524 87.016 85.1524 87.432C85.5364 85.992 86.3524 85.272 87.6004 85.272C88.2084 85.272 88.6724 85.432 88.9924 85.752C89.3284 86.056 89.4964 86.504 89.4964 87.096C89.4964 87.64 89.3364 88.032 89.0164 88.272C88.6964 88.512 88.1844 88.632 87.4804 88.632C87.1764 88.632 86.8964 88.656 86.6404 88.704C87.3284 89.664 87.6724 91 87.6724 92.712C87.6724 93.784 87.5124 94.672 87.1924 95.376C86.8884 96.08 86.3204 96.664 85.4884 97.128C86.2884 97.416 86.8484 97.864 87.1684 98.472C87.5044 99.064 87.6724 99.728 87.6724 100.464ZM80.0404 92.688C80.0404 94.688 80.7364 95.688 82.1284 95.688C83.5204 95.688 84.2164 94.688 84.2164 92.688C84.2164 91.648 84.0404 90.888 83.6884 90.408C83.3524 89.928 82.8324 89.688 82.1284 89.688C81.4404 89.688 80.9204 89.928 80.5684 90.408C80.2164 90.888 80.0404 91.648 80.0404 92.688ZM94.2152 97.584C94.2152 98.656 93.6552 99.192 92.5352 99.192C91.9912 99.192 91.5592 99.056 91.2392 98.784C90.9192 98.512 90.7592 98.112 90.7592 97.584V82.584C90.7592 82.008 90.8872 81.552 91.1432 81.216C91.4152 80.88 91.8632 80.712 92.4872 80.712C93.1112 80.712 93.5512 80.88 93.8072 81.216C94.0792 81.552 94.2152 82.008 94.2152 82.584V97.584ZM102.795 99.192C101.195 99.192 99.9388 98.928 99.0268 98.4C98.1308 97.872 97.4908 97.144 97.1068 96.216C96.7388 95.288 96.5548 94.224 96.5548 93.024C96.5548 90.816 97.0428 89.232 98.0188 88.272C98.9948 87.296 100.307 86.808 101.955 86.808C102.947 86.808 103.827 86.976 104.595 87.312C105.363 87.648 105.963 88.128 106.395 88.752C106.827 89.36 107.043 90.104 107.043 90.984C107.043 93.544 105.219 94.824 101.571 94.824H100.179C100.307 95.32 100.515 95.712 100.803 96C101.107 96.272 101.635 96.408 102.387 96.408C102.803 96.408 103.139 96.384 103.395 96.336C103.651 96.288 103.891 96.24 104.115 96.192C104.355 96.144 104.627 96.12 104.931 96.12C105.363 96.12 105.707 96.2 105.963 96.36C106.219 96.504 106.347 96.808 106.347 97.272C106.347 97.928 106.059 98.416 105.483 98.736C104.923 99.04 104.027 99.192 102.795 99.192ZM100.011 93.048C100.139 92.872 100.283 92.76 100.443 92.712C100.603 92.648 100.851 92.616 101.187 92.616C102.131 92.616 102.779 92.528 103.131 92.352C103.499 92.16 103.683 91.824 103.683 91.344C103.683 90.736 103.515 90.272 103.179 89.952C102.843 89.616 102.419 89.448 101.907 89.448C101.315 89.448 100.851 89.696 100.515 90.192C100.179 90.688 100.011 91.64 100.011 93.048Z" fill="#001897"/>
</svg>
