<svg width="54" height="54" viewBox="0 0 54 54" fill="none" xmlns="http://www.w3.org/2000/svg">
<path fill-rule="evenodd" clip-rule="evenodd" d="M19.1706 23.3073L17.6664 19.6982L16.3708 23.3873L8.81445 44.9036L11.645 45.8977L17.9058 28.0704L21.6329 37.0126L23.0174 40.3345L24.402 37.0126L26.9765 30.8357L25.2541 27.5467L25.1204 27.491L23.0174 32.5366L19.1706 23.3073Z" fill="#B1252D"/>
<path fill-rule="evenodd" clip-rule="evenodd" d="M27 54C40.8976 54 52.3429 43.4998 53.8352 30H53H50.8143H44.085H44V30.0775L44.085 30L46.8214 33H50.2439C49.2477 36.8703 47.3104 40.3628 44.6904 43.219L30.2625 3.21988C40.9946 4.6785 49.4715 13.2315 50.8143 24H53.8352C52.3429 10.5002 40.8976 0 27 0C12.0883 0 0 12.0883 0 27C0 41.9117 12.0883 54 27 54ZM3 27C3 14.7088 12.2396 4.57563 24.1521 3.16721L19.2014 16.4959L21.0953 20.0131L27.2011 3.57429L42.3135 45.4707L42.3343 45.4632C38.1758 48.9207 32.8307 51 27 51C13.7452 51 3 40.2548 3 27Z" fill="#4A30AF"/>
</svg>
