<svg width="24" height="24" viewBox="0 0 24 24" fill="none" xmlns="http://www.w3.org/2000/svg">
<path d="M11.8447 0L0 24C9.51517 10.4539 14.7697 10.5368 24 24L11.8447 0Z" fill="#855AFF"/>
<path d="M7.43786 19.432C7.24586 19.432 7.14986 19.3414 7.14986 19.16V18.2C7.14986 17.944 7.2312 17.7414 7.39386 17.592C7.5592 17.4427 7.77653 17.368 8.04586 17.368C8.3152 17.368 8.5312 17.4427 8.69386 17.592C8.8592 17.7414 8.94186 17.944 8.94186 18.2V19.16C8.94186 19.3414 8.84586 19.432 8.65386 19.432C8.46186 19.432 8.36586 19.3414 8.36586 19.16V18.232C8.36586 18.1067 8.33786 18.012 8.28186 17.948C8.22586 17.8814 8.1472 17.848 8.04586 17.848C7.94453 17.848 7.86586 17.8814 7.80986 17.948C7.75386 18.012 7.72586 18.1067 7.72586 18.232V19.16C7.72586 19.3414 7.62986 19.432 7.43786 19.432ZM10.2511 19.432C9.96578 19.432 9.74045 19.3507 9.57511 19.188C9.40978 19.0254 9.32711 18.7627 9.32711 18.4C9.32711 18.0347 9.40978 17.772 9.57511 17.612C9.74045 17.4494 9.96578 17.368 10.2511 17.368C10.5364 17.368 10.7618 17.4494 10.9271 17.612C11.0924 17.772 11.1751 18.0347 11.1751 18.4C11.1751 18.7627 11.0924 19.0254 10.9271 19.188C10.7618 19.3507 10.5364 19.432 10.2511 19.432ZM10.2511 18.952C10.3258 18.952 10.3884 18.9374 10.4391 18.908C10.4898 18.876 10.5284 18.82 10.5551 18.74C10.5844 18.66 10.5991 18.5467 10.5991 18.4C10.5991 18.2534 10.5844 18.14 10.5551 18.06C10.5284 17.98 10.4898 17.9254 10.4391 17.896C10.3884 17.864 10.3258 17.848 10.2511 17.848C10.1791 17.848 10.1164 17.864 10.0631 17.896C10.0124 17.9254 9.97245 17.98 9.94311 18.06C9.91645 18.14 9.90311 18.2534 9.90311 18.4C9.90311 18.5467 9.91645 18.66 9.94311 18.74C9.97245 18.82 10.0124 18.876 10.0631 18.908C10.1164 18.9374 10.1791 18.952 10.2511 18.952ZM13.3037 19.644C13.3037 19.8707 13.1971 20.04 12.9837 20.152C12.7704 20.264 12.4651 20.32 12.0677 20.32C11.8624 20.32 11.7117 20.2934 11.6157 20.24C11.5224 20.1894 11.4757 20.1094 11.4757 20C11.4757 19.9227 11.4971 19.8707 11.5397 19.844C11.5824 19.82 11.6397 19.808 11.7117 19.808C11.7651 19.808 11.8104 19.8107 11.8477 19.816C11.8851 19.824 11.9251 19.8307 11.9677 19.836C12.0131 19.844 12.0691 19.848 12.1357 19.848C12.3464 19.848 12.4971 19.832 12.5877 19.8C12.6811 19.768 12.7277 19.7027 12.7277 19.604C12.7277 19.5214 12.6944 19.4547 12.6277 19.404C12.5611 19.3534 12.4771 19.328 12.3757 19.328C11.7624 19.328 11.4557 19.0014 11.4557 18.348C11.4557 18.0147 11.5331 17.768 11.6877 17.608C11.8424 17.448 12.0731 17.368 12.3797 17.368C12.5824 17.368 12.7504 17.4027 12.8837 17.472C12.9477 17.232 13.0837 17.112 13.2917 17.112C13.3931 17.112 13.4704 17.1387 13.5237 17.192C13.5797 17.2427 13.6077 17.3174 13.6077 17.416C13.6077 17.5067 13.5811 17.572 13.5277 17.612C13.4744 17.652 13.3891 17.672 13.2717 17.672C13.2211 17.672 13.1744 17.676 13.1317 17.684C13.2464 17.844 13.3037 18.0667 13.3037 18.352C13.3037 18.5307 13.2771 18.6787 13.2237 18.796C13.1731 18.9134 13.0784 19.0107 12.9397 19.088C13.0731 19.136 13.1664 19.2107 13.2197 19.312C13.2757 19.4107 13.3037 19.5214 13.3037 19.644ZM12.0317 18.348C12.0317 18.6814 12.1477 18.848 12.3797 18.848C12.6117 18.848 12.7277 18.6814 12.7277 18.348C12.7277 18.1747 12.6984 18.048 12.6397 17.968C12.5837 17.888 12.4971 17.848 12.3797 17.848C12.2651 17.848 12.1784 17.888 12.1197 17.968C12.0611 18.048 12.0317 18.1747 12.0317 18.348ZM14.3942 19.164C14.3942 19.3427 14.3009 19.432 14.1142 19.432C14.0235 19.432 13.9515 19.4094 13.8982 19.364C13.8449 19.3187 13.8182 19.252 13.8182 19.164V16.664C13.8182 16.568 13.8395 16.492 13.8822 16.436C13.9275 16.38 14.0022 16.352 14.1062 16.352C14.2102 16.352 14.2835 16.38 14.3262 16.436C14.3715 16.492 14.3942 16.568 14.3942 16.664V19.164ZM15.8241 19.432C15.5575 19.432 15.3481 19.388 15.1961 19.3C15.0468 19.212 14.9401 19.0907 14.8761 18.936C14.8148 18.7814 14.7841 18.604 14.7841 18.404C14.7841 18.036 14.8655 17.772 15.0281 17.612C15.1908 17.4494 15.4095 17.368 15.6841 17.368C15.8495 17.368 15.9961 17.396 16.1241 17.452C16.2521 17.508 16.3521 17.588 16.4241 17.692C16.4961 17.7934 16.5321 17.9174 16.5321 18.064C16.5321 18.4907 16.2281 18.704 15.6201 18.704H15.3881C15.4095 18.7867 15.4441 18.852 15.4921 18.9C15.5428 18.9454 15.6308 18.968 15.7561 18.968C15.8255 18.968 15.8815 18.964 15.9241 18.956C15.9668 18.948 16.0068 18.94 16.0441 18.932C16.0841 18.924 16.1295 18.92 16.1801 18.92C16.2521 18.92 16.3095 18.9334 16.3521 18.96C16.3948 18.984 16.4161 19.0347 16.4161 19.112C16.4161 19.2214 16.3681 19.3027 16.2721 19.356C16.1788 19.4067 16.0295 19.432 15.8241 19.432ZM15.3601 18.408C15.3815 18.3787 15.4055 18.36 15.4321 18.352C15.4588 18.3414 15.5001 18.336 15.5561 18.336C15.7135 18.336 15.8215 18.3214 15.8801 18.292C15.9415 18.26 15.9721 18.204 15.9721 18.124C15.9721 18.0227 15.9441 17.9454 15.8881 17.892C15.8321 17.836 15.7615 17.808 15.6761 17.808C15.5775 17.808 15.5001 17.8494 15.4441 17.932C15.3881 18.0147 15.3601 18.1734 15.3601 18.408Z" fill="#001897"/>
</svg>
